<svg 
    fill="currentColor"
    stroke="currentColor"
    viewBox="0 0 64 64" xmlns="http://www.w3.org/2000/svg">
 <g transform="translate(108.42 -1.9279)">
  <g transform="matrix(-.16453 0 0 -.16453 -63.894 49.007)">
   <path d="m-19.355 15.107c-19.456 0-38.912 7.3909-53.695 22.174-29.566 29.566-29.566 77.823 0 107.39 29.566 29.566 77.823 29.566 107.39 0l46.211-46.211a10.584 10.584 0 0 0 0-14.967l-46.211-46.211c-14.783-14.783-34.238-22.174-53.693-22.174zm0 21.033c13.994 0 27.988 5.3688 38.727 16.107l38.727 38.729-38.727 38.727c-21.477 21.477-55.978 21.477-77.455 0s-21.477-55.978 0-77.455c10.739-10.739 24.734-16.107 38.729-16.107z"/>
   <path d="m-19.355 1.8789c-22.806 0-45.721 8.7209-63.049 26.049-34.655 34.655-34.655 91.44 0 126.1 34.655 34.655 91.44 34.655 126.1 0l46.211-46.211a13.23 13.23 0 0 0 2e-3 0c9.1864-9.1886 9.1864-24.485 0-33.674a13.23 13.23 0 0 0-2e-3 0l-46.211-46.211c-17.328-17.328-40.241-26.049-63.047-26.049zm0 47.49c10.611 0 21.139 3.9982 29.373 12.232l29.373 29.375-29.373 29.373c-16.468 16.468-42.28 16.468-58.748 0s-16.468-42.28 0-58.748c8.2336-8.2336 18.764-12.232 29.375-12.232z"/>
   <path d="m165.49 15.107c-19.456 0-38.912 7.3908-53.695 22.174l-46.211 46.211a10.584 10.584 0 0 0 0 14.967s33.45 33.45 46.211 46.211c29.566 29.566 77.823 29.566 107.39 0s29.566-77.823 0-107.39c-14.783-14.783-34.238-22.174-53.693-22.174zm0 21.033c13.994 0 27.988 5.3688 38.727 16.107 21.477 21.477 21.477 55.978 0 77.455s-55.978 21.477-77.455 0c-10.694-10.694-30.839-30.837-38.729-38.727l38.729-38.729c10.739-10.739 24.734-16.107 38.729-16.107z"/>
   <path d="m165.49 1.8789c-22.806 0-45.721 8.7209-63.049 26.049l-46.211 46.211a13.23 13.23 0 0 0-2e-3 0c-9.1864 9.1886-9.1864 24.485 0 33.674a13.23 13.23 0 0 0 2e-3 0l46.211 46.211c34.655 34.655 91.44 34.655 126.1 0 34.655-34.655 34.655-91.44 0-126.1-17.328-17.328-40.241-26.049-63.047-26.049zm0 47.49c10.611 0 21.139 3.9982 29.373 12.232 16.468 16.468 16.468 42.28 0 58.748s-42.28 16.468-58.748 0c-8.1118-8.1118-19.862-19.86-29.375-29.373l29.375-29.375c8.2336-8.2336 18.764-12.232 29.375-12.232z"/>
  </g>
  <path d="m-60.71 46.522c3.201 0 6.4021-1.216 8.8343-3.6482 4.8643-4.8643 4.8643-12.804 0-17.668-4.8643-4.8643-12.804-4.8643-17.668 0l-6.3716 6.3716c-1.298-1.298-4.6122-4.6121-6.3717-6.3716-4.8643-4.8643-12.804-4.8643-17.668 0-4.8643 4.8643-4.8643 12.804 0 17.668 2.4322 2.4322 5.633 3.6482 8.8339 3.6482 3.201 0 6.402-1.216 8.8342-3.6482 1.7595-1.7595 5.0737-5.0736 6.3717-6.3716l6.3716 6.3716c2.4322 2.4322 5.633 3.6482 8.8339 3.6482zm0-3.4604c-2.3024 0-4.6047-0.88333-6.3715-2.6501l-6.3715-6.3718 6.3715-6.3715c3.5335-3.5335 9.2097-3.5335 12.743 0 3.5335 3.5335 3.5335 9.2098 0 12.743-1.7668 1.7668-4.0694 2.6501-6.3718 2.6501zm-30.411 2e-6c-2.3024 0-4.6048-0.88333-6.3715-2.6501-3.5335-3.5335-3.5335-9.2098 0-12.743 3.5335-3.5335 9.2098-3.5335 12.743 0 1.7595 1.7595 5.0738 5.0735 6.3718 6.3715l-6.3718 6.3718c-1.7668 1.7668-4.0694 2.6501-6.3718 2.6501z"/>
  <g transform="matrix(-.16453 0 0 -.16453 -63.894 49.007)">
   <path d="m-19.355 15.107c-19.456 0-38.912 7.3909-53.695 22.174-29.566 29.566-29.566 77.823 0 107.39 29.566 29.566 77.823 29.566 107.39 0l46.211-46.211a10.584 10.584 0 0 0 0-14.967l-46.211-46.211c-14.783-14.783-34.238-22.174-53.693-22.174zm0 21.033c13.994 0 27.988 5.3688 38.727 16.107l38.727 38.729-38.727 38.727c-21.477 21.477-55.978 21.477-77.455 0s-21.477-55.978 0-77.455c10.739-10.739 24.734-16.107 38.729-16.107z"/>
   <path d="m-19.355 1.8789c-22.806 0-45.721 8.7209-63.049 26.049-34.655 34.655-34.655 91.44 0 126.1 34.655 34.655 91.44 34.655 126.1 0l46.211-46.211a13.23 13.23 0 0 0 2e-3 0c9.1864-9.1886 9.1864-24.485 0-33.674a13.23 13.23 0 0 0-2e-3 0l-46.211-46.211c-17.328-17.328-40.241-26.049-63.047-26.049zm0 47.49c10.611 0 21.139 3.9982 29.373 12.232l29.373 29.375-29.373 29.373c-16.468 16.468-42.28 16.468-58.748 0s-16.468-42.28 0-58.748c8.2336-8.2336 18.764-12.232 29.375-12.232z"/>
   <path d="m165.49 15.107c-19.456 0-38.912 7.3908-53.695 22.174l-46.211 46.211a10.584 10.584 0 0 0 0 14.967s33.45 33.45 46.211 46.211c29.566 29.566 77.823 29.566 107.39 0s29.566-77.823 0-107.39c-14.783-14.783-34.238-22.174-53.693-22.174zm0 21.033c13.994 0 27.988 5.3688 38.727 16.107 21.477 21.477 21.477 55.978 0 77.455s-55.978 21.477-77.455 0c-10.694-10.694-30.839-30.837-38.729-38.727l38.729-38.729c10.739-10.739 24.734-16.107 38.729-16.107z"/>
   <path d="m165.49 1.8789c-22.806 0-45.721 8.7209-63.049 26.049l-46.211 46.211a13.23 13.23 0 0 0-2e-3 0c-9.1864 9.1886-9.1864 24.485 0 33.674a13.23 13.23 0 0 0 2e-3 0l46.211 46.211c34.655 34.655 91.44 34.655 126.1 0 34.655-34.655 34.655-91.44 0-126.1-17.328-17.328-40.241-26.049-63.047-26.049zm0 47.49c10.611 0 21.139 3.9982 29.373 12.232 16.468 16.468 16.468 42.28 0 58.748s-42.28 16.468-58.748 0c-8.1118-8.1118-19.862-19.86-29.375-29.373l29.375-29.375c8.2336-8.2336 18.764-12.232 29.375-12.232z"/>
  </g>
  <path d="m-51.876 42.874c4.8643-4.8643 4.8644-12.804 5.9e-5 -17.668-4.8643-4.8643-12.804-4.8643-17.668 1e-6l-15.206 15.206c-1.7668 1.7668-4.0694 2.6501-6.3718 2.6501s-4.6047-0.88327-6.3715-2.65c-3.5335-3.5335-3.5335-9.2098 0-12.743 3.5335-3.5335 9.2098-3.5335 12.743 0 1.3345 1.3345 3.2676 3.2675 4.8329 4.8326l2.4623-2.4623c-1.5652-1.5652-3.4983-3.4982-4.8328-4.8327-4.8643-4.8643-12.804-4.8644-17.668-6e-5 -4.8643 4.8643-4.8643 12.804 6e-5 17.668 2.4322 2.4322 5.6329 3.6481 8.8338 3.6481 3.201-1e-6 6.402-1.216 8.8342-3.6481 1.7595-1.7595 5.0737-5.0736 6.3717-6.3716l4.77e-4 4.93e-4v-8.22e-4l2.4621-2.4621-6e-5 -6e-5 6.3715-6.3715c3.5335-3.5335 9.2097-3.5335 12.743 0 3.5335 3.5335 3.5335 9.2097 0 12.743-1.7668 1.7668-4.0694 2.6501-6.3718 2.6501s-4.6047-0.88333-6.3714-2.6501l-4.8325-4.8328-2.4625 2.4625 4.8326 4.8326c2.4322 2.4322 5.6329 3.6481 8.8338 3.6481 3.201 0 6.402-1.216 8.8342-3.6481z" fill="#fff"/>
 </g>
</svg>
